HIERARCHY
ROOT RootJoint
{
    OFFSET   0.000000   0.000000   0.000000
    CHANNELS 6 Xposition Yposition Zposition Xrotation Yrotation Zrotation
    JOINT lHip
    {
        OFFSET   0.100000  -0.051395   0.000000
        CHANNELS 3 Xrotation Yrotation Zrotation
        JOINT lKnee
        {
            OFFSET   0.000000  -0.410000   0.000000
            CHANNELS 3 Xrotation Yrotation Zrotation
            JOINT lAnkle
            {
                OFFSET   0.000000  -0.390000   0.000000
                CHANNELS 3 Xrotation Yrotation Zrotation
                JOINT lToeJoint
                {
                    OFFSET   0.000000  -0.050000   0.130000
                    CHANNELS 3 Xrotation Yrotation Zrotation
                    End Site
                    {
                        OFFSET   0.010000   0.002000   0.060000
                    }
                }
            }
        }
    }
    JOINT rHip
    {
        OFFSET  -0.100000  -0.051395   0.000000
        CHANNELS 3 Xrotation Yrotation Zrotation
        JOINT rKnee
        {
            OFFSET   0.000000  -0.410000   0.000000
            CHANNELS 3 Xrotation Yrotation Zrotation
            JOINT rAnkle
            {
                OFFSET   0.000000  -0.390000   0.000000
                CHANNELS 3 Xrotation Yrotation Zrotation
                JOINT rToeJoint
                {
                    OFFSET   0.000000  -0.050000   0.130000
                    CHANNELS 3 Xrotation Yrotation Zrotation
                    End Site
                    {
                        OFFSET  -0.010000   0.002000   0.060000
                    }
                }
            }
        }
    }
    JOINT pelvis_lowerback
    {
        OFFSET   0.000000   0.093605   0.000000
        CHANNELS 3 Xrotation Yrotation Zrotation
        JOINT lowerback_torso
        {
            OFFSET   0.000000   0.100000   0.000000
            CHANNELS 3 Xrotation Yrotation Zrotation
            JOINT torso_head
            {
                OFFSET   0.000000   0.282350   0.000000
                CHANNELS 3 Xrotation Yrotation Zrotation
                End Site
                {
                    OFFSET   0.000000   0.192650   0.000000
                }
            }
            JOINT lTorso_Clavicle
            {
                OFFSET   0.001000   0.157500   0.000000
                CHANNELS 3 Xrotation Yrotation Zrotation
                JOINT lShoulder
                {
                    OFFSET   0.117647   0.000000   0.000000
                    CHANNELS 3 Xrotation Yrotation Zrotation
                    JOINT lElbow
                    {
                        OFFSET   0.245000   0.000000   0.000000
                        CHANNELS 3 Xrotation Yrotation Zrotation
                        JOINT lWrist
                        {
                            OFFSET   0.240000   0.000000   0.000000
                            CHANNELS 3 Xrotation Yrotation Zrotation
                            End Site
                            {
                                OFFSET   0.116353  -0.002500   0.000000
                            }
                        }
                    }
                }
            }
            JOINT rTorso_Clavicle
            {
                OFFSET  -0.001000   0.157500   0.000000
                CHANNELS 3 Xrotation Yrotation Zrotation
                JOINT rShoulder
                {
                    OFFSET  -0.117647   0.000000   0.000000
                    CHANNELS 3 Xrotation Yrotation Zrotation
                    JOINT rElbow
                    {
                        OFFSET  -0.245000   0.000000   0.000000
                        CHANNELS 3 Xrotation Yrotation Zrotation
                        JOINT rWrist
                        {
                            OFFSET  -0.240000   0.000000   0.000000
                            CHANNELS 3 Xrotation Yrotation Zrotation
                            End Site
                            {
                                OFFSET  -0.116353  -0.002500   0.000000
                            }
                        }
                    }
                }
            }
        }
    }
}
MOTION
Frames: 17
Frame Time:   0.010000
 -2.236555   0.840650   2.342746   0.367715 -73.856663  -8.091276 -36.995429   2.667467  13.175132  50.131825  -4.771523   4.948795 -10.875781  -3.680799  -5.193952   0.000002   0.000005  -0.000001   5.009498 -18.135958  -3.662219   9.691931   1.251927  -1.794005  -8.046048  -2.733693  19.020858  -0.000002   0.000004  -0.000002   1.407544   0.362532   1.187993   5.541841   1.503145   4.785374   6.916157  20.472361  -5.900226   0.194596   0.781604 -17.553255  10.800416 -31.210425 -50.885842   0.939618 -29.783064  10.357468   2.305485  -0.619658   3.082829  -1.156165   1.405058  18.494139  25.693363  21.005324  38.312243  -0.491150  19.930492  -4.739792  -0.142387   2.243240  -9.762739
 -2.237127   0.840166   2.343825   0.596914 -72.456444  -7.732521 -37.175551   2.422835  13.376143  49.399182  -3.524610   5.073457 -10.573196  -2.969934  -4.311766   0.000001   0.000004  -0.000001   5.617467 -18.873342  -3.647317   9.286867   0.980492  -1.771705  -8.013323  -2.971910  19.267711  -0.000001   0.000004  -0.000002   1.424354   0.324506   1.153497   5.616550   1.352878   4.648158   6.882858  21.145593  -6.100083   0.186602   0.620074 -17.595689  11.213047 -31.128445 -50.385750   0.807208 -27.366473   9.862205   0.432236  -0.324493   3.182734  -1.149982   1.384050  18.428402  25.934516  20.941797  38.159574  -0.500842  20.353284  -4.925702   0.128215   2.482501 -10.152253
 -2.237699   0.839681   2.344904   0.782718 -71.055860  -7.416671 -37.354783   2.177575  13.576348  48.664633  -2.279391   5.213926 -10.281771  -2.254514  -3.433850   0.000000   0.000003  -0.000002   6.228376 -19.610533  -3.624042   8.881937   0.708907  -1.751327  -7.979564  -3.209985  19.514755   0.000000   0.000003  -0.000001   1.441140   0.286471   1.119012   5.690895   1.202433   4.511147   6.851934  21.818930  -6.300445   0.178489   0.458551 -17.638145  11.624466 -31.043390 -49.886800   0.700550 -24.948980   9.383258  -1.441494  -0.032752   3.292233  -1.143823   1.363035  18.362668  26.175384  20.877670  38.007258  -0.509093  20.776104  -5.112052   0.400491   2.719916 -10.542968
 -2.238271   0.839197   2.345983   0.934010 -69.654991  -7.134802 -37.533128   1.931692  13.775754  47.927495  -1.036076   5.370261 -10.001467  -1.534727  -2.559949  -0.000002   0.000002  -0.000002   6.842468 -20.347448  -3.592277   8.477123   0.437184  -1.732870  -7.944768  -3.447912  19.762000   0.000001   0.000003  -0.000001   1.457904   0.248425   1.084539   5.764876   1.051811   4.374337   6.823410  22.492364  -6.501374   0.170257   0.297033 -17.680623  12.034631 -30.955274 -49.389027   0.617729 -22.530781   8.917991  -3.315797   0.255252   3.411214  -1.137688   1.342013  18.296937  26.415966  20.812947  37.855296  -0.515893  21.198946  -5.298864   0.674437   2.955468 -10.934887
 -2.239037   0.838158   2.347828   1.022070 -68.259803  -6.959021 -37.712858   1.717903  13.956884  47.221138   0.207110   5.490736  -9.781628  -0.784433  -1.862953  -0.000002   0.000001  -0.000002   7.536913 -20.789565  -3.506501   8.093344   0.023759  -1.708418  -7.921789  -3.803423  20.116298   0.000001   0.000003  -0.000001   1.475798   0.217504   1.055912   5.841917   0.929825   4.260866   6.792855  22.996419  -6.573575   0.159542   0.099189 -17.685590  12.311975 -30.716018 -49.010853   0.527941 -20.303525   8.366227  -4.667037   0.732401   3.381490  -1.128882   1.258274  18.244573  26.433974  20.726916  37.826049  -0.517297  21.439001  -5.442655   1.075056   3.034251 -11.136509
 -2.239900   0.836842   2.350055   1.078266 -66.867490  -6.836462 -37.893064   1.519916  14.128607  46.529257   1.449878   5.600478  -9.595122  -0.018615  -1.255332  -0.000002   0.000000  -0.000002   8.272115 -21.083282  -3.393038   7.720236  -0.460622  -1.682957  -7.902594  -4.217671  20.524328   0.000001   0.000004  -0.000001   1.494255   0.190141   1.030213   5.920449   0.822101   4.159122   6.760444  23.415759  -6.581009   0.147669  -0.116823 -17.671832  12.521076 -30.401374 -48.694056   0.447766 -18.171200   7.776965  -5.755804   1.307069   3.283366  -1.118811   1.143173  18.198909  26.340887  20.630388  37.857882  -0.516205  21.587654  -5.564881   1.538456   3.034562 -11.242584
 -2.240763   0.835527   2.352281   1.124277 -65.475136  -6.723756 -38.072661   1.321392  14.299691  45.834452   2.691227   5.725319  -9.416733   0.749135  -0.650155  -0.000002   0.000000  -0.000002   9.009403 -21.375613  -3.275312   7.347304  -0.945157  -1.660648  -7.880429  -4.631772  20.932725   0.000001   0.000004  -0.000001   1.512700   0.162771   1.004523   5.998788   0.714237   4.057528   6.727989  23.835102  -6.588208   0.135848  -0.332837 -17.658118  12.727495 -30.085742 -48.379601   0.391320 -16.038215   7.197521  -6.843889   1.883498   3.196158  -1.108831   1.028064  18.153268  26.247917  20.533813  37.889527  -0.514770  21.736305  -5.687236   2.001857   3.034017 -11.348657
 -2.241603   0.834133   2.354811   1.242598 -64.127547  -6.550501 -38.344612   1.209193  14.456761  45.243596   3.906675   5.857660  -9.116653   1.525231  -0.192404  -0.000002  -0.000001  -0.000002   9.698875 -21.663868  -3.156757   6.985771  -1.393964  -1.668407  -7.840271  -5.032510  21.390626   0.000001   0.000004  -0.000001   1.522132   0.145504   0.979307   6.039724   0.645544   3.957464   6.681010  24.165782  -6.557590   0.125232  -0.527064 -17.640403  12.898231 -29.707957 -48.111769   0.344991 -14.073668   6.640046  -7.594909   2.510121   3.017769  -1.099632   0.902923  18.125884  26.076226  20.409170  37.959640  -0.511673  21.800618  -5.770675   2.359383   3.012135 -11.400601
 -2.242398   0.832580   2.357946   1.502231 -62.869133  -6.259936 -38.802383   1.269841  14.587188  44.864406   5.072419   5.984907  -8.561083   2.315996  -0.030814  -0.000001   0.000000  -0.000001  10.290357 -21.945627  -3.041429   6.646504  -1.770833  -1.732542  -7.766629  -5.406332  21.947391   0.000001   0.000004  -0.000001   1.513561   0.148460   0.955027   6.006189   0.655462   3.860215   6.604795  24.319042  -6.451499   0.116984  -0.677713 -17.614627  13.000502 -29.207300 -47.934602   0.291277 -12.446417   6.116553  -7.669445   3.234845   2.639286  -1.091826   0.757731  18.134989  25.747490  20.227944  38.106145  -0.505834  21.696261  -5.776055   2.505199   2.949104 -11.344191
 -2.243192   0.831028   2.361082   1.737825 -61.610171  -5.993246 -39.260301   1.329446  14.718099  44.481848   6.237294   6.120168  -8.007384   3.108288   0.123196  -0.000001   0.000001  -0.000001  10.883630 -22.226264  -2.922735   6.306739  -2.147316  -1.798923  -7.689291  -5.779423  22.504995   0.000000   0.000004  -0.000002   1.504992   0.151420   0.930747   5.972670   0.665436   3.762972   6.528176  24.472174  -6.345055   0.108805  -0.828366 -17.588871  13.100513 -28.706372 -47.759309   0.253013 -10.818759   5.597666  -7.739241   3.960045   2.261447  -1.083998   0.612541  18.144114  25.419630  20.045934  38.251370  -0.500009  21.591903  -5.781418   2.651069   2.886217 -11.287624
 -2.243987   0.829476   2.364217   1.952419 -60.350731  -5.747382 -39.718366   1.388003  14.849485  44.095588   7.401239   6.263598  -7.455352   3.902027   0.269655   0.000000   0.000002   0.000000  11.478725 -22.505745  -2.800663   5.966447  -2.523399  -1.867555  -7.608253  -6.151747  23.063484   0.000000   0.000004  -0.000002   1.496424   0.154383   0.906467   5.939169   0.675467   3.665734   6.451151  24.625176  -6.238256   0.100692  -0.979022 -17.563136  13.198312 -28.205180 -47.585837   0.229871  -9.190828   5.082475  -7.804303   4.685688   1.884133  -1.076146   0.467352  18.153258  25.092640  19.863147  38.395318  -0.494199  21.487544  -5.786767   2.796994   2.823474 -11.230900
 -2.244635   0.827590   2.368306   2.388910 -59.240480  -5.405103 -40.425245   1.870113  15.029582  44.224706   8.171709   6.379315  -7.104020   4.490562  -0.070700   0.000000   0.000002   0.000000  11.832309 -23.096711  -2.714383   5.816362  -2.574197  -1.972720  -7.484208  -6.329681  23.777922   0.000001   0.000004  -0.000001   1.460849   0.181850   0.904805   5.793948   0.781098   3.657861   6.301734  24.563930  -6.114991   0.101305  -0.967413 -17.540879  13.392362 -27.725819 -47.489464   0.201017  -8.104029   4.752263  -7.239702   5.282619   1.288365  -1.075076   0.382962  18.212534  24.737218  19.635851  38.577760  -0.486376  21.218338  -5.710843   2.560162   2.756014 -11.109005
 -2.245282   0.825704   2.372396   2.799141 -58.128987  -5.089589 -41.133856   2.349962  15.215674  44.352509   8.942433   6.493510  -6.748882   5.076993  -0.414963   0.000000   0.000003   0.000000  12.188446 -23.687173  -2.623737   5.666179  -2.624719  -2.078022  -7.357896  -6.506063  24.492995   0.000002   0.000003  -0.000001   1.425275   0.209317   0.903160   5.648738   0.886748   3.650256   6.152534  24.502391  -5.991962   0.101914  -0.955805 -17.518622  13.584662 -27.246174 -47.395336   0.178546  -7.017084   4.423433  -6.668320   5.873637   0.686110  -1.073918   0.298573  18.271811  24.383066  19.407496  38.758446  -0.478186  20.949141  -5.635016   2.323487   2.688051 -10.987398
 -2.245930   0.823819   2.376485   3.185779 -57.016381  -4.798195 -41.844291   2.827472  15.407763  44.479037   9.713407   6.606212  -6.389869   5.661274  -0.763203   0.000000   0.000003   0.000000  12.547242 -24.277104  -2.528650   5.515896  -2.674966  -2.183461  -7.229333  -6.680864  25.208711   0.000003   0.000003   0.000000   1.389702   0.236786   0.901533   5.503537   0.992418   3.642918   6.003554  24.440562  -5.869170   0.102518  -0.944196 -17.496365  13.775260 -26.766252 -47.303413   0.162395  -5.930030   4.095739  -6.090085   6.458612   0.077286  -1.072673   0.214186  18.331089  24.030173  19.178095  38.937382  -0.469629  20.679955  -5.559284   2.086970   2.619587 -10.866079
 -2.246561   0.821940   2.381365   3.584548 -55.967166  -4.533624 -42.589722   3.585387  15.545607  44.869295  10.129127   6.710005  -6.342920   5.969319  -0.964257   0.000000   0.000003   0.000000  12.789797 -25.048022  -2.502754   5.526836  -2.581339  -2.306415  -6.950730  -6.741448  25.994048   0.000003   0.000003   0.000000   1.352857   0.271784   0.908364   5.351955   1.128199   3.669486   5.780935  24.258207  -5.766755   0.107410  -0.851113 -17.462240  14.080993 -26.387067 -47.277927   0.149741  -5.146498   3.866169  -5.455443   6.864270  -0.496977  -1.076024   0.199526  18.397432  23.755517  18.964249  39.150037  -0.462984  20.416712  -5.470501   1.782226   2.534934 -10.713100
 -2.247183   0.820066   2.386641   3.981226 -54.949164  -4.291142 -43.354154   4.483042  15.664418  45.391810  10.367879   6.808054  -6.453027   6.140175  -1.090133   0.000001   0.000002   0.000000  12.974276 -25.909638  -2.510459   5.618727  -2.416044  -2.438289  -6.597830  -6.741278  26.813992   0.000002   0.000003   0.000000   1.315370   0.310541   0.919440   5.197077   1.278933   3.713258   5.522192  24.015369  -5.675598   0.114369  -0.717289 -17.422196  14.444029 -26.058378 -47.286855   0.138421  -4.514723   3.685604  -4.791964   7.176996  -1.055116  -1.081723   0.219724  18.467309  23.520531  18.757784  39.379151  -0.457039  20.156443  -5.375274   1.443566   2.441521 -10.544664
 -2.247805   0.818192   2.391916   4.360841 -53.930255  -4.066591 -44.121488   5.379032  15.795409  45.914313  10.607501   6.903960  -6.562791   6.311271  -1.215718   0.000002   0.000001   0.000001  13.160003 -26.771272  -2.515114   5.710988  -2.250960  -2.570413  -6.244971  -6.736093  27.633914   0.000001   0.000003   0.000001   1.277875   0.349291   0.930542   5.042075   1.429547   3.757440   5.264357  23.772160  -5.585811   0.121234  -0.583461 -17.382170  14.806113 -25.729747 -47.298070   0.129105  -3.882916   3.505310  -4.124983   7.483270  -1.617257  -1.087447   0.239915  18.537188  23.286705  18.550433  39.607091  -0.450644  19.896184  -5.280175   1.105204   2.347116 -10.376794
